<svg width="27" height="27" viewBox="0 0 27 27" fill="none" xmlns="http://www.w3.org/2000/svg">
<g clip-path="url(#clip0_11_113)">
<path d="M26.2471 10.5439H25.2V10.49H13.5V15.69H20.847C19.7751 18.717 16.8949 20.89 13.5 20.89C9.19245 20.89 5.7 17.3975 5.7 13.09C5.7 8.78245 9.19245 5.29 13.5 5.29C15.4883 5.29 17.2973 6.0401 18.6747 7.26535L22.3517 3.5883C20.0299 1.42445 16.9242 0.0899963 13.5 0.0899963C6.32075 0.0899963 0.5 5.91075 0.5 13.09C0.5 20.2692 6.32075 26.09 13.5 26.09C20.6792 26.09 26.5 20.2692 26.5 13.09C26.5 12.2183 26.4103 11.3675 26.2471 10.5439Z" fill="#FBC02D"/>
<path d="M1.99884 7.03915L6.26999 10.1715C7.42569 7.3102 10.2246 5.29 13.4999 5.29C15.4883 5.29 17.2972 6.0401 18.6746 7.26535L22.3516 3.5883C20.0298 1.42445 16.9241 0.0899963 13.4999 0.0899963C8.50664 0.0899963 4.17634 2.90905 1.99884 7.03915Z" fill="#E53935"/>
<path d="M13.5 26.09C16.8579 26.09 19.909 24.805 22.2159 22.7152L18.1924 19.3105C16.8872 20.2992 15.2648 20.89 13.5 20.89C10.1187 20.89 7.24769 18.734 6.16609 15.7251L1.92679 18.9914C4.07829 23.2014 8.44759 26.09 13.5 26.09Z" fill="#4CAF50"/>
<path d="M26.2471 10.5439L26.2368 10.49H25.2H13.5V15.69H20.847C20.3322 17.144 19.3968 18.3979 18.1904 19.3111L18.1923 19.3098L22.2158 22.7145C21.9311 22.9732 26.5 19.59 26.5 13.09C26.5 12.2183 26.4103 11.3675 26.2471 10.5439Z" fill="#1565C0"/>
</g>
<defs>
<clipPath id="clip0_11_113">
<rect width="26" height="26" fill="white" transform="translate(0.5 0.0899963)"/>
</clipPath>
</defs>
</svg>
